<svg width="275" height="203" viewBox="0 0 275 203" fill="none" xmlns="http://www.w3.org/2000/svg">
<path d="M45.7776 152.95C44.1374 152.95 42.5451 153.307 41.0247 154.022C39.5042 154.736 38.738 155.889 38.738 157.469C38.738 159.728 39.8873 161.354 42.1979 162.333C44.5085 163.313 48.3635 164.328 53.7629 165.388C60.6469 166.668 65.5794 168.801 68.5604 171.775C71.5295 174.749 73.026 178.277 73.026 182.346C73.026 185.516 72.3436 188.352 70.9668 190.877C69.602 193.401 67.6745 195.534 65.2082 197.263C62.742 198.992 59.8088 200.33 56.4088 201.275C53.0087 202.22 49.3093 202.693 45.3107 202.693C41.312 202.693 37.6006 202.301 34.3921 201.506C31.1836 200.71 28.466 199.73 26.2272 198.566C24.0004 197.402 22.2764 196.157 21.0672 194.831C19.858 193.517 19.2475 192.364 19.2475 191.384C19.2475 189.574 20.0137 188.064 21.5341 186.865C23.0546 185.666 24.6469 185.055 26.287 185.055C27.9272 185.055 29.3998 185.355 30.6928 185.954C31.9857 186.554 33.3386 187.199 34.7393 187.879C36.1401 188.56 37.7563 189.194 39.5521 189.805C41.3479 190.404 43.5867 190.704 46.2445 190.704C48.9023 190.704 50.8777 190.07 52.4101 188.779C53.9305 187.499 54.6968 186.173 54.6968 184.824C54.6968 183.476 54.3256 182.392 53.5834 181.608C52.8411 180.813 51.7636 180.156 50.3509 179.625C48.9382 179.095 47.1663 178.611 45.0114 178.15C42.8564 177.7 40.3782 177.135 37.5527 176.455C35.1224 175.856 32.8597 175.118 30.7407 174.253C28.6216 173.389 26.7899 172.317 25.2215 171.037C23.6532 169.757 22.4201 168.213 21.5222 166.403C20.6243 164.593 20.1693 162.518 20.1693 160.189C20.1693 157.1 20.8876 154.368 22.3363 151.993C23.7849 149.618 25.6765 147.624 28.035 145.998C30.3815 144.373 33.0632 143.139 36.0802 142.263C39.0972 141.399 42.162 140.96 45.2987 140.96C48.4354 140.96 51.5242 141.226 54.3376 141.756C57.151 142.286 59.6412 142.966 61.7962 143.785C63.9512 144.615 65.6512 145.572 66.9083 146.667C68.1534 147.762 68.7879 148.869 68.7879 149.998C68.7879 150.748 68.5724 151.52 68.1414 152.316C67.7104 153.111 67.1477 153.78 66.4413 154.344C65.735 154.909 64.9568 155.382 64.0948 155.762C63.2328 156.143 62.3708 156.327 61.5089 156.327C60.2518 156.327 59.1025 156.154 58.0489 155.82C56.9954 155.486 55.882 155.082 54.7087 154.633C53.5355 154.183 52.2425 153.78 50.8298 153.445C49.4171 153.111 47.741 152.938 45.7776 152.938V152.95Z" fill="#EBE700"/>
<path d="M130.66 167.763C130.66 170.403 130.037 172.155 128.78 173.02C127.523 173.884 125.488 174.323 122.674 174.323H98.2512C92.768 174.323 90.0384 176.282 90.0384 180.202C90.0384 181.412 90.3856 182.634 91.0919 183.879C91.7983 185.124 92.7201 186.254 93.8455 187.269C94.9829 188.283 96.2878 189.101 97.7724 189.701C99.2569 190.3 100.741 190.6 102.238 190.6C104.74 190.6 106.799 190.185 108.404 189.355C110.008 188.525 111.421 187.626 112.63 186.646C113.839 185.666 115.012 184.767 116.149 183.937C117.287 183.107 118.592 182.692 120.076 182.692C121.01 182.692 121.956 182.865 122.89 183.199C123.824 183.533 124.686 183.995 125.476 184.559C126.254 185.124 126.888 185.77 127.355 186.485C127.822 187.199 128.062 187.903 128.062 188.571C128.062 189.47 127.535 190.704 126.481 192.249C125.428 193.793 123.824 195.315 121.669 196.825C119.514 198.335 116.796 199.638 113.504 200.722C110.211 201.817 106.38 202.359 101.999 202.359C97.6167 202.359 93.7258 201.736 90.0863 200.491C86.4468 199.246 83.2742 197.379 80.5805 194.9C77.8748 192.41 75.7677 189.344 74.2353 185.689C72.7148 182.035 71.9486 177.793 71.9486 172.974C71.9486 167.175 72.7867 162.253 74.4747 158.218C76.1508 154.183 78.3896 150.909 81.1671 148.385C83.9446 145.86 87.1172 144.015 90.6729 142.84C94.2286 141.675 97.928 141.087 101.771 141.087C106.069 141.087 109.756 141.629 112.809 142.724C115.862 143.819 118.46 145.226 120.615 146.967C122.77 148.696 124.506 150.621 125.835 152.731C127.164 154.84 128.181 156.881 128.888 158.84C129.594 160.8 130.061 162.587 130.3 164.212C130.54 165.838 130.648 167.025 130.648 167.775L130.66 167.763ZM90.9722 160.074C90.9722 163.544 94.1807 165.273 100.598 165.273C108.427 165.273 112.342 163.694 112.342 160.524C112.342 159.624 112.043 158.714 111.456 157.814C110.87 156.915 110.104 156.085 109.17 155.324C108.236 154.575 107.111 153.964 105.83 153.515C104.537 153.065 103.184 152.834 101.783 152.834C100.61 152.834 99.3886 153.019 98.1435 153.399C96.8864 153.78 95.7371 154.287 94.6836 154.921C93.63 155.566 92.7441 156.316 92.0377 157.18C91.3314 158.045 90.9842 159.013 90.9842 160.062L90.9722 160.074Z" fill="#EBE700"/>
<path d="M188.185 167.763C188.185 170.403 187.563 172.155 186.306 173.02C185.049 173.884 183.013 174.323 180.2 174.323H155.777C150.294 174.323 147.564 176.282 147.564 180.202C147.564 181.412 147.911 182.634 148.618 183.879C149.324 185.124 150.246 186.254 151.371 187.269C152.509 188.283 153.813 189.101 155.31 189.701C156.795 190.3 158.279 190.6 159.776 190.6C162.278 190.6 164.337 190.185 165.941 189.355C167.545 188.525 168.958 187.626 170.167 186.646C171.376 185.666 172.55 184.767 173.687 183.937C174.824 183.107 176.129 182.692 177.626 182.692C178.56 182.692 179.506 182.865 180.439 183.199C181.373 183.533 182.235 183.995 183.025 184.559C183.804 185.124 184.438 185.77 184.905 186.485C185.372 187.199 185.611 187.903 185.611 188.571C185.611 189.47 185.085 190.704 184.031 192.249C182.977 193.793 181.373 195.315 179.218 196.825C177.063 198.335 174.346 199.638 171.053 200.722C167.761 201.805 163.93 202.359 159.548 202.359C155.166 202.359 151.275 201.736 147.636 200.491C143.996 199.246 140.824 197.379 138.13 194.9C135.424 192.41 133.317 189.344 131.785 185.689C130.264 182.035 129.498 177.793 129.498 172.974C129.498 167.175 130.336 162.253 132.024 158.218C133.7 154.183 135.939 150.909 138.717 148.385C141.494 145.86 144.667 144.015 148.223 142.84C151.778 141.675 155.478 141.087 159.321 141.087C163.619 141.087 167.306 141.629 170.359 142.724C173.412 143.819 176.01 145.226 178.165 146.967C180.32 148.696 182.056 150.621 183.384 152.731C184.713 154.84 185.731 156.881 186.437 158.84C187.144 160.8 187.611 162.587 187.85 164.212C188.09 165.838 188.197 167.025 188.197 167.775L188.185 167.763ZM148.498 160.074C148.498 163.544 151.706 165.273 158.123 165.273C165.953 165.273 169.868 163.694 169.868 160.524C169.868 159.624 169.569 158.714 168.982 157.814C168.395 156.915 167.629 156.085 166.695 155.324C165.762 154.575 164.636 153.964 163.355 153.515C162.062 153.065 160.709 152.834 159.309 152.834C158.135 152.834 156.926 153.019 155.669 153.399C154.412 153.78 153.263 154.287 152.209 154.921C151.156 155.566 150.27 156.316 149.563 157.18C148.857 158.045 148.51 159.013 148.51 160.062L148.498 160.074Z" fill="#EBE700"/>
<path d="M223.287 141.871C228.687 141.871 233.009 143.243 236.265 145.998C239.51 148.753 241.138 153.399 241.138 159.959V195.234C241.138 197.425 240.431 199.027 239.031 200.042C237.618 201.056 235.894 201.563 233.871 201.563H231.285C229.405 201.563 227.837 201.056 226.592 200.042C225.335 199.027 224.712 197.425 224.712 195.234V170.818C224.712 160.42 221.348 155.221 214.62 155.221C207.891 155.221 204.288 160.65 204.288 171.498V195.234C204.288 197.425 203.581 199.027 202.181 200.042C200.768 201.056 199.044 201.563 197.021 201.563H194.435C192.399 201.563 190.795 200.998 189.622 199.869C188.449 198.739 187.862 196.964 187.862 194.554V149.791C187.862 145.422 190.604 143.232 196.075 143.232C198.421 143.232 200.54 143.497 202.42 144.027C204.3 144.557 206.024 144.822 207.592 144.822C209.005 144.822 210.214 144.673 211.232 144.373C212.249 144.073 213.303 143.739 214.404 143.358C215.494 142.978 216.727 142.644 218.103 142.344C219.468 142.044 221.216 141.894 223.323 141.894L223.287 141.871Z" fill="#EBE700"/>
<path fill-rule="evenodd" clip-rule="evenodd" d="M43.1153 5.49829C45.2807 5.96142 47.3137 3.61102 49.7317 3.55313C53.0039 3.47208 57.0098 5.30145 63.0849 2.5458C64.4323 1.93215 66.9105 1.24904 68.4503 2.73107C69.5811 3.83102 70.76 4.42151 71.9269 3.93522C74.8141 2.73107 77.6532 6.47087 79.3975 6.96874C80.2998 7.22347 81.2381 8.20763 82.1885 8.83286C83.5118 9.7244 84.8471 11.6464 86.1223 12.8043C87.5418 14.0895 88.6245 14.8536 89.5387 15.4326C91.1989 17.2388 89.3342 17.7019 88.1072 19.9018C86.7358 21.1986 85.4005 22.7848 83.8727 25.7489L85.8576 38.404L88.8049 47.9215L86.6997 51.2213L97.2379 65.509C97.5266 67.5121 97.1657 69.1099 95.5537 69.8972L88.817 71.7266C88.1433 76.6474 89.4425 78.0021 90.5011 79.7851L87.9749 81.6145L90.5011 84.9144L87.5538 86.7437L89.6591 93.7024C90.0681 96.2033 88.5643 97.7548 87.638 99.0284C85.4366 101.645 84.5102 101.541 81.2261 101.726C74.4653 102.074 70.2307 100.916 62.9887 98.4148C60.6549 101.784 57.5512 103.66 57.5993 111.626C51.8129 117.461 52.9437 120.472 52.1979 127.87C49.022 128.322 49.3347 130.881 28.3425 110.433C17.8885 100.244 5.83451 93.9802 0.204506 99.2716C3.87363 89.1058 9.94875 85.2038 10.3337 74.2507L7.63901 70.0246C7.63901 70.0246 5.11272 66.2037 5.01648 65.3585L2.83906 58.8862L0 37.6514C0.613526 24.2552 9.79236 16.8567 16.3366 12.0748C21.3892 8.06869 27.6688 6.44772 34.3454 5.28988C37.2206 4.79201 40.1679 5.47513 43.1273 5.4867L43.1153 5.49829Z" fill="#EBE700"/>
<path d="M264.165 81.001C264.249 80.4916 264.382 79.9937 264.37 79.4726C264.37 79.4263 264.345 79.3684 264.333 79.3221C264.261 79.3569 264.261 79.4263 264.249 79.4958C264.189 80.0863 263.973 80.6305 263.744 81.1631C263.66 81.3715 263.6 81.6031 263.431 81.7767C263.335 81.8809 263.431 81.9157 263.539 81.9273C263.648 81.9273 263.708 81.9852 263.66 82.1009C263.467 82.6683 263.275 83.2241 263.082 83.7914C263.046 83.9072 262.974 84.0229 262.962 84.1387C262.914 84.7176 262.625 85.2271 262.421 85.7481C262.3 86.0492 262.192 86.3386 262.132 86.6628C262.048 87.0449 261.964 87.4501 261.506 87.6701C261.29 87.7743 261.17 88.087 261.061 88.3185C260.929 88.608 260.833 88.9206 260.749 89.2216C260.676 89.4648 260.592 89.6964 260.448 89.9048C260.412 89.9627 260.376 90.0321 260.352 90.09C260.243 90.0321 260.303 89.9279 260.279 89.8469C260.279 89.8006 260.243 89.7079 260.207 89.7658C260.003 90.1016 259.594 90.3332 259.473 90.6805C259.377 90.9584 259.173 91.1089 259.04 91.3289C259.016 91.3752 258.956 91.3984 258.92 91.4447C258.836 91.5605 258.74 91.6183 258.595 91.5257C258.535 91.491 258.475 91.4563 258.391 91.491C258.198 91.5605 258.198 91.8847 257.958 91.8268C257.669 91.7573 257.621 92.0005 257.476 92.1047C257.368 92.1857 257.272 92.3247 257.128 92.1394C257.091 92.0815 256.971 92.0815 256.923 92.1394C256.767 92.3594 256.562 92.3247 256.334 92.3131C256.141 92.3131 256.009 92.4636 255.84 92.5562C255.576 92.7067 255.359 92.9615 254.998 92.892C254.974 92.892 254.926 92.9152 254.902 92.9383C254.24 93.3551 253.639 93.112 253.049 92.7646C252.989 92.7299 252.929 92.672 252.869 92.6373C252.737 92.5794 252.568 92.4983 252.472 92.6373C252.4 92.7299 252.544 92.8225 252.604 92.9036C252.929 93.3783 253.29 93.8298 253.567 94.3393C253.687 94.5709 253.891 94.7677 254.072 94.9761C254.385 95.3466 254.661 95.7518 254.986 96.1108C255.54 96.7476 256.129 97.3728 256.899 97.8012C256.995 97.8591 257.103 97.8939 257.2 97.9402C257.717 98.137 258.391 98.7391 258.391 99.318C258.391 99.9548 257.32 100.65 256.791 100.869C256.141 101.136 255.407 101.182 254.734 101.344C253.663 101.611 252.604 101.877 251.534 102.132C250.74 102.328 249.934 102.525 249.2 102.873C248.225 103.324 247.528 104.03 246.698 104.713C245.795 105.466 244.857 106.196 243.859 106.832C242.295 107.84 240.586 108.615 238.974 109.553C237.338 110.503 235.798 111.672 234.475 112.98C232.779 114.648 231.456 116.616 230.072 118.515C229.374 119.476 228.677 120.506 227.835 121.363C227.486 121.722 227.017 121.977 226.632 122.313C226.126 122.764 225.621 123.216 225.116 123.656C224.695 124.015 224.298 124.408 223.865 124.744C223.564 124.987 223.299 125.381 222.963 125.566C222.229 125.96 221.699 126.77 221.158 127.372C220.785 127.778 220.4 128.194 219.871 128.391C218.993 128.727 218.391 128.16 217.958 127.488C217.272 126.435 216.611 125.358 215.937 124.304C215.275 123.274 214.578 122.278 213.892 121.282C213.796 121.143 213.687 121.027 213.651 120.865C213.591 120.506 213.387 120.205 213.218 119.881C212.388 118.353 211.438 116.882 210.644 115.331C210.379 114.798 209.994 114.347 209.633 113.872C209.477 113.664 209.357 113.467 209.297 113.212C209.164 112.645 208.888 112.147 208.611 111.637C208.322 111.082 208.009 110.537 207.817 109.935C207.685 109.553 207.492 109.183 207.3 108.812C206.963 108.187 206.626 107.55 206.277 106.925C205.868 106.184 205.543 105.408 205.182 104.644C204.785 103.799 204.424 102.942 204.1 102.074C203.811 101.286 203.306 100.707 202.403 100.476C201.405 100.233 200.431 99.9201 199.42 99.7001C198.806 99.5727 198.217 99.3527 197.616 99.1906C196.93 99.0054 196.232 98.8317 195.546 98.6464C194.416 98.3454 193.321 97.917 192.25 97.4654C191.119 97.0023 189.977 96.5392 188.81 96.1687C187.546 95.775 186.452 95.0919 185.513 94.1888C185.177 93.8646 184.948 93.4477 184.743 93.0193C184.346 92.1741 183.998 91.3173 184.07 90.3679C184.19 88.7122 184.575 87.1376 185.441 85.6787C185.754 85.1576 186.055 84.625 186.404 84.1272C186.56 83.8956 186.68 83.6408 186.704 83.3398C186.777 82.5062 186.825 81.6841 186.716 80.8505C186.68 80.5494 186.62 80.2484 186.464 79.9821C185.886 78.9864 185.971 78.0022 186.548 77.0412C186.777 76.6475 186.801 76.6359 186.464 76.3233C185.742 75.6634 185.405 74.795 185.08 73.915C184.864 73.3477 185.032 72.7803 185.116 72.2246C185.273 71.2057 185.453 70.1868 185.598 69.1679C185.646 68.8553 185.634 68.5311 185.634 68.2069C185.634 67.9058 185.549 67.8248 185.261 67.7785C184.13 67.5932 183.131 67.1417 182.157 66.5743C181.339 66.0996 180.653 65.5091 180.1 64.7565C179.21 63.5755 179.342 62.1167 180.052 61.1557C180.377 60.7157 180.738 60.2873 181.195 59.9631C182.061 59.361 182.951 58.7937 183.757 58.1221C184.515 57.4853 185.273 56.8485 185.934 56.0959C186.656 55.2623 187.306 54.3823 188.04 53.5487C188.581 52.935 188.954 52.2172 189.255 51.4646C189.399 51.1056 189.315 51.0362 188.954 50.7583C188.665 50.5383 188.352 50.4225 188.016 50.3415C187.667 50.2604 187.366 50.0867 187.113 49.8552C186.969 49.7278 186.656 49.612 186.728 49.4499C186.813 49.2415 187.065 49.4615 187.258 49.4499C187.558 49.4499 187.847 49.4499 188.148 49.4499C188.328 49.4499 188.425 49.3457 188.437 49.1836C188.497 48.5815 188.605 47.991 188.725 47.389C188.786 47.1111 188.725 46.8216 188.641 46.5438C188.437 45.7912 188.16 45.0965 187.619 44.4944C187.45 44.3091 187.342 44.0775 187.21 43.8691C187.017 43.5681 186.861 43.2671 186.536 43.0471C186.223 42.8387 186.127 42.4219 185.995 42.0861C185.934 41.924 186.055 41.7619 186.187 41.6692C186.56 41.4377 186.644 41.0903 186.644 40.6967C186.644 40.2567 186.668 39.8051 186.668 39.3652C186.668 39.261 186.668 39.1452 186.632 39.0525C186.476 38.6241 186.572 38.5663 185.983 38.4968C185.622 38.4505 185.249 38.381 184.96 38.1378C184.659 37.8947 184.274 37.8831 183.913 37.8021C183.36 37.6747 182.891 37.42 182.458 37.0727C181.507 36.3201 180.689 35.4517 180.028 34.4559C179.932 34.317 179.823 34.2012 179.655 34.1549C179.258 34.0623 178.993 33.7844 178.68 33.5528C178.199 33.1939 177.79 32.7539 177.441 32.2792C177.189 31.9434 177.08 31.5382 176.996 31.1445C176.924 30.7972 176.888 30.4383 176.84 30.0909C176.816 29.8825 176.72 29.7551 176.491 29.6741C176.046 29.5235 175.757 29.1415 175.456 28.8173C174.963 28.3078 174.542 27.7405 174.217 27.1152C174.145 26.9763 174.073 26.8374 173.929 26.7447C173.7 26.5826 173.604 26.3163 173.483 26.0732C173.195 25.4827 172.906 24.8806 172.846 24.2091C172.786 23.6186 172.617 23.0628 172.473 22.4839C172.389 22.1366 172.389 21.8124 172.641 21.5229C172.714 21.4419 172.762 21.3492 172.738 21.2334C172.557 20.5735 172.846 20.0061 173.171 19.4735C173.387 19.1146 173.556 18.7093 173.868 18.3967C173.977 18.2925 173.965 18.0957 174.049 17.9568C174.145 17.8062 174.049 17.6557 174.013 17.5515C173.929 17.3663 173.784 17.6441 173.652 17.5515H173.64C173.532 17.4473 173.447 17.3199 173.291 17.3199H173.279C173.88 16.8105 174.59 16.4747 175.348 16.2547C175.649 16.1621 175.95 16.0695 176.25 16C176.503 15.9537 176.587 15.7453 176.756 15.6179C176.768 15.6063 176.78 15.5484 176.756 15.5253C176.503 15.2705 176.756 15.3053 176.9 15.2937C177.562 15.2358 178.211 15.1779 178.873 15.1432C179.053 15.1432 179.246 15.1663 179.414 15.2011C179.679 15.2474 179.835 15.1316 180.028 15.039C180.232 14.9464 180.316 14.7727 180.341 14.5643C180.353 14.4138 180.449 14.3211 180.569 14.2169C180.822 14.0201 181.098 13.8927 181.411 13.8233C181.58 13.7885 181.736 13.7306 181.844 13.6148C181.868 13.5917 181.88 13.557 181.892 13.5338C181.856 13.5338 181.82 13.4991 181.784 13.5106C181.604 13.5454 181.423 13.6033 181.255 13.638C181.219 13.638 181.183 13.638 181.147 13.638C181.171 13.6148 181.195 13.5801 181.219 13.557C181.303 13.4991 181.399 13.4296 181.495 13.3717C181.736 13.2559 181.977 13.1517 182.205 13.0475C182.458 13.1865 182.698 13.0938 182.843 12.9086C182.975 12.7465 183.095 12.6654 183.3 12.7233C183.565 12.7928 183.721 12.6654 183.829 12.457C183.865 12.3991 183.901 12.3296 183.949 12.2833C184.022 12.2023 184.094 12.2139 184.166 12.3065C184.383 12.5728 184.383 12.5728 184.671 12.4454C184.756 12.4107 184.84 12.376 184.912 12.3181C185.044 12.2139 185.02 12.1097 184.852 12.0055C184.804 11.9823 184.731 11.9823 184.731 11.9128C184.731 11.8549 184.804 11.8549 184.864 11.8434C185.032 11.8202 185.14 11.6697 185.321 11.6697C185.525 11.6697 185.429 11.4265 185.562 11.3571C185.622 11.3223 185.646 11.2181 185.73 11.2644C185.766 11.2876 185.79 11.3455 185.802 11.4034C185.85 11.6813 185.874 11.7276 186.091 11.6813C186.644 11.577 187.222 11.6118 187.775 11.415C188.028 11.3223 188.316 11.2413 188.509 11.0792C189.002 10.6624 189.592 10.6624 190.181 10.6508C191.047 10.6392 191.913 10.6624 192.767 10.6739C192.912 10.6739 193.068 10.674 193.213 10.6392C193.333 10.6161 193.525 10.616 193.549 10.4887C193.573 10.3034 193.357 10.3961 193.261 10.3498C192.852 10.1529 192.395 10.1992 191.961 10.1645C191.913 10.1645 191.817 10.1298 191.817 10.1182C191.817 10.0024 191.925 10.0719 191.973 10.0487C192.046 10.0256 192.118 10.0024 192.178 9.97924C192.202 9.96766 192.214 9.92136 192.214 9.88662C192.214 9.86346 192.166 9.82871 192.142 9.82871C191.829 9.81714 191.516 9.80558 191.276 9.56243C191.865 9.56243 192.455 9.66663 193.044 9.59716C193.213 9.57401 193.369 9.55084 193.501 9.44663C193.561 9.40032 193.597 9.34244 193.561 9.26139C193.489 9.08772 193.489 9.07613 193.61 9.05297C194.151 8.92561 194.692 8.83298 195.222 8.70562C195.643 8.613 196.1 8.68247 196.533 8.65931C197.014 8.63615 197.495 8.70561 197.964 8.58982C198.181 8.53193 198.385 8.48563 198.614 8.45089C198.794 8.41616 198.722 8.31195 198.722 8.21932C198.722 8.08038 198.65 8.0804 198.554 8.10356C198.409 8.12671 198.265 8.14987 198.121 8.09197V8.11512C198.241 8.05723 198.385 7.99934 198.518 7.94145C198.602 7.90671 198.722 7.8604 198.722 7.77935C198.746 7.432 199.023 7.432 199.264 7.38569C199.612 7.31622 199.961 7.26991 200.286 7.11939C200.382 7.07308 200.515 7.06148 200.539 6.93412C200.575 6.7836 200.479 6.78362 200.358 6.74888C200.274 6.72572 200.37 6.65624 200.443 6.64466C200.936 6.56361 201.429 6.48258 201.922 6.41311C203.245 6.2047 204.569 6.15839 205.904 6.18154C206.253 6.18154 206.602 6.14679 206.939 6.04258C207.48 5.88048 208.021 5.70683 208.575 5.54473C208.623 5.53315 208.695 5.54474 208.731 5.51C208.791 5.47527 208.851 5.41736 208.827 5.33631C208.815 5.26684 208.755 5.26686 208.707 5.26686C208.599 5.26686 208.491 5.26685 208.37 5.24369C208.274 5.23211 208.166 5.32474 208.082 5.19738C208.178 5.15107 208.274 5.09316 208.37 5.07C208.839 5.00053 209.321 4.93109 209.79 4.87319C209.898 4.86162 210.054 4.87317 210.079 4.76896C210.163 4.45634 210.439 4.50267 210.644 4.46794C211.089 4.39847 211.534 4.329 211.991 4.31742C212.28 4.31742 212.533 4.22478 212.797 4.15531C213.531 3.97006 214.265 3.81955 215.011 3.77323C215.035 3.77323 215.047 3.77323 215.071 3.77323C215.865 3.55324 216.683 3.39116 217.429 3.00907C217.778 2.8354 218.151 2.74275 218.499 2.58065C218.548 2.5575 218.608 2.54593 218.668 2.5575C219.269 2.67329 219.787 2.40698 220.316 2.2333C220.701 2.10594 221.074 1.96701 221.483 1.92069C221.603 1.90912 221.736 1.86281 221.856 1.81649C222.818 1.44598 223.877 1.46913 224.875 1.20283C225.104 1.14494 225.332 1.07548 225.573 1.02917C225.97 0.94812 226.355 0.867069 226.764 0.901804C227.293 0.936539 227.823 0.890219 228.352 0.820749C228.881 0.762857 229.411 0.739704 229.928 0.542871C230.217 0.427088 230.541 0.403919 230.854 0.380762C231.588 0.32287 232.31 0.207102 233.032 0.0913179C233.26 0.0565828 233.537 -0.00131214 233.729 0.137628C233.934 0.26499 234.042 0.241815 234.162 0.0681398C234.235 -0.0360655 234.367 0.0102632 234.475 0.0102632C235.726 0.03342 236.989 0.0334322 238.241 0.114481C239.119 0.172373 239.997 0.288138 240.839 0.623911C241.224 0.786008 241.645 0.867059 242.054 0.982843C242.764 1.17968 243.51 1.21441 244.231 1.31861C244.52 1.36493 244.809 1.42283 245.098 1.4923C245.591 1.61967 246.108 1.72387 246.613 1.82807C247.54 2.01333 248.442 2.2449 249.296 2.66172C249.477 2.75435 249.681 2.81223 249.886 2.81223C250.186 2.81223 250.463 2.92802 250.74 2.99749C251.534 3.19432 252.243 3.57641 252.941 3.98165C253.687 4.41005 254.517 4.67636 255.239 5.15107C255.828 5.53316 256.478 5.77629 257.115 6.06574C258.09 6.5173 258.944 7.14256 259.858 7.67517C261.049 8.36987 262.108 9.21506 263.13 10.1182C263.203 10.1761 263.299 10.2224 263.323 10.3034C263.527 10.8129 263.985 11.1024 264.358 11.4729C264.646 11.7507 264.827 12.1097 265.139 12.3528C265.2 12.3991 265.248 12.4917 265.176 12.5265C264.923 12.6423 265.067 12.7812 265.139 12.9201C265.296 13.2443 265.536 13.5222 265.765 13.8001C266.33 14.5295 266.763 15.34 267.269 16.0926C267.497 16.4284 267.726 16.7526 267.846 17.1347C267.942 17.4126 268.015 17.702 268.123 17.9683C268.231 18.2462 268.339 18.5473 268.496 18.7904C269.073 19.6935 269.434 20.6777 269.759 21.685C269.891 22.1018 270.048 22.5186 270.072 22.9702C270.072 23.2017 269.927 23.3754 269.975 23.6302C270.108 24.348 270.156 25.0774 270.36 25.7837C270.493 26.2469 270.433 26.7332 270.481 27.2079C270.481 27.2658 270.421 27.3352 270.397 27.3931C270.397 27.3468 270.372 27.2889 270.372 27.2426C270.36 27.011 270.144 26.8489 270.144 26.6174C270.144 26.5711 270.084 26.5247 270.012 26.5595C269.963 26.5826 269.915 26.6405 269.939 26.6869C270.12 26.9532 269.819 27.231 270 27.5089C270.144 27.7521 270.228 28.0299 270.312 28.3078C270.565 29.1183 270.794 29.9404 271.034 30.7624C271.106 31.0172 271.178 31.2719 271.287 31.515C271.539 32.1287 271.624 32.8002 271.888 33.4139C271.9 33.4486 271.924 33.4949 271.9 33.5181C271.672 33.7844 271.864 34.0623 271.9 34.3401C271.972 35.0812 272.081 35.8222 272.021 36.5748C271.997 36.899 272.021 37.2463 272.069 37.5821C272.105 37.941 272.069 38.2884 271.997 38.6357C271.924 39.0062 271.96 39.342 272.069 39.6894C272.273 40.3956 272.454 41.1019 272.55 41.8314C272.61 42.2482 272.754 42.6418 272.899 43.0471C273.043 43.4986 273.272 43.9502 273.043 44.4481C273.248 44.7722 272.947 44.9575 272.815 45.1891C272.742 45.3049 272.658 45.3164 272.61 45.1544C272.586 45.0849 272.538 45.108 272.502 45.1544C272.478 45.1775 272.478 45.2238 272.478 45.2586C272.478 45.8491 272.562 46.4164 272.803 46.9837C273.236 48.0258 273.633 49.0678 273.873 50.1678C273.933 50.4341 273.933 50.7235 273.933 51.013C273.933 51.453 274.03 51.893 274.138 52.3214C274.15 52.3677 274.162 52.4256 274.174 52.4719C274.222 52.6919 274.198 52.935 274.09 53.0971C273.897 53.3982 273.969 53.7918 273.657 54.0349C273.621 54.0581 273.621 54.1508 273.56 54.1392C273.536 54.1392 273.512 54.0465 273.512 54.0002C273.512 53.8613 273.476 53.7223 273.548 53.5834C273.693 53.2824 273.56 52.9929 273.476 52.7035C273.464 52.6571 273.428 52.6108 273.356 52.6224C273.296 52.634 273.272 52.6919 273.272 52.7382C273.188 53.2361 273.236 53.7339 273.332 54.2202C273.356 54.3591 273.368 54.4865 273.392 54.6255C273.428 54.8223 273.296 55.077 273.621 55.1812C273.681 55.2044 273.705 55.3665 273.717 55.4707C273.801 55.9106 273.897 56.3391 273.969 56.779C274.078 57.4274 274.27 58.0642 274.39 58.701C274.475 59.1642 274.631 59.6273 274.463 60.1136C274.451 60.1599 274.475 60.2178 274.463 60.2757C274.439 60.3683 274.583 60.4957 274.427 60.542C274.39 60.542 274.294 60.3915 274.246 60.3104C274.174 60.1831 274.126 60.0557 274.066 59.9283C273.957 59.6968 273.945 59.4305 273.633 59.2915C273.476 59.2221 273.452 58.9905 273.416 58.8168C273.38 58.6663 273.344 58.5042 273.308 58.3537C273.272 58.2263 273.212 58.1105 273.067 58.0874C272.971 58.0642 272.887 57.9253 272.778 58.0063C272.682 58.0874 272.742 58.2147 272.778 58.3074C273.079 59.141 273.368 59.9862 273.789 60.7851C274.018 61.2251 274.174 61.7114 274.366 62.1746C274.427 62.3135 274.427 62.4525 274.439 62.5914C274.439 62.8577 274.439 63.124 274.451 63.3903C274.234 63.3324 274.102 63.1819 274.006 63.0082C273.981 62.9619 273.933 62.9272 273.873 62.9387C273.765 62.9619 273.789 63.0545 273.801 63.1124C273.861 63.3555 273.837 63.6103 273.885 63.8534C274.03 64.5944 273.897 65.2891 273.693 65.9954C273.596 66.3196 273.597 66.6554 273.38 66.9448C273.332 67.0027 273.308 67.0722 273.224 67.0375C272.995 66.9448 272.947 67.0606 272.887 67.2459C272.73 67.7553 272.562 68.2648 272.369 68.7627C272.309 68.9132 272.309 69.1795 271.997 69.11C271.852 69.3532 271.732 69.6195 271.672 69.8973C271.636 70.0594 271.587 70.2099 271.491 70.3373C271.467 70.372 271.407 70.3836 271.359 70.4184C271.359 70.372 271.323 70.3142 271.335 70.2678C271.407 69.99 271.527 69.7352 271.539 69.4458C271.539 69.3647 271.612 69.2721 271.467 69.2374C271.323 69.2027 271.263 69.2952 271.239 69.411C271.191 69.5847 271.154 69.7584 271.118 69.9321C271.082 70.1173 271.01 70.1289 270.866 70.0131C270.661 69.8626 270.649 69.8742 270.541 70.0826C270.493 70.1752 270.409 70.2678 270.397 70.372C270.324 71.0783 269.795 71.5762 269.53 72.1783C269.326 72.653 268.857 72.9309 268.688 73.4056C268.616 73.6024 268.303 73.4403 268.243 73.6487C268.195 73.8224 268.147 73.9961 267.967 74.0771C267.918 74.1003 267.858 74.1119 267.81 74.1466C267.678 74.2161 267.642 74.3087 267.678 74.4592C267.714 74.6097 267.726 74.7718 267.738 74.9339C267.738 75.1423 267.666 75.0729 267.582 74.9687C267.545 74.9339 267.473 74.9455 267.449 74.9918C267.401 75.0844 267.353 75.1887 267.353 75.2929C267.329 76.0223 266.848 76.6244 266.715 77.3191C266.451 77.5622 266.511 78.0601 266.042 78.1759C266.006 78.1759 265.97 78.2569 265.957 78.3032C265.945 78.7085 265.561 78.9516 265.5 79.3453C265.476 79.5421 265.392 79.7853 265.067 79.7968C264.935 79.7968 264.899 80.0168 264.863 80.1558C264.779 80.4221 264.694 80.7 264.598 80.9663C264.574 81.0473 264.526 81.1283 264.406 81.1283L264.165 81.001Z" fill="#EBE700"/>
<path d="M197.988 8.09167C197.988 8.09167 197.988 8.11482 197.988 8.13798C198.024 8.11482 198.012 8.10325 197.964 8.11483V8.09167H197.988Z" fill="#EBE700"/>
<path d="M182.109 13.0592L182.133 13.0476L182.097 13.036L182.109 13.0592Z" fill="#EBE700"/>
<path d="M104.059 52.8772V49.01H171.763V52.8772H104.059Z" fill="#EBE700"/>
<path d="M105.599 56.1768L96.095 50.9434L105.599 45.7099V56.1768Z" fill="#EBE700"/>
<path d="M168.708 45.7215L178.211 50.955L168.708 56.1884V45.7215Z" fill="#EBE700"/>
</svg>
